<?xml version="1.0" encoding="UTF-8" standalone="no"?>
<!DOCTYPE svg PUBLIC "-//W3C//DTD SVG 1.1//EN"
 "http://www.w3.org/Graphics/SVG/1.1/DTD/svg11.dtd">
<!-- Generated by graphviz version 2.40.1 (20161225.0304)
 -->
<!-- Title: dependencies Pages: 1 -->
<svg width="1288pt" height="284pt"
 viewBox="0.00 0.00 1288.00 284.00" xmlns="http://www.w3.org/2000/svg" xmlns:xlink="http://www.w3.org/1999/xlink">
<g id="graph0" class="graph" transform="scale(1 1) rotate(0) translate(4 280)">
<title>dependencies</title>
<polygon fill="#ffffff" stroke="transparent" points="-4,4 -4,-280 1284,-280 1284,4 -4,4"/>
<text text-anchor="start" x="619.0091" y="-42.4" font-family="sans-serif" font-weight="bold" font-size="14.00" fill="#000000">Legend</text>
<polygon fill="#ffffb3" stroke="transparent" points="406,-10 406,-30 426,-30 426,-10 406,-10"/>
<text text-anchor="start" x="429.629" y="-15.4" font-family="sans-serif" font-size="14.00" fill="#000000"> &#160;Declarations</text>
<polygon fill="#8dd3c7" stroke="transparent" points="519,-10 519,-30 539,-30 539,-10 519,-10"/>
<text text-anchor="start" x="542.7251" y="-15.4" font-family="sans-serif" font-size="14.00" fill="#000000"> &#160;Module</text>
<polygon fill="#80b1d3" stroke="transparent" points="605,-10 605,-30 625,-30 625,-10 605,-10"/>
<text text-anchor="start" x="628.7812" y="-15.4" font-family="sans-serif" font-size="14.00" fill="#000000"> &#160;Bootstrap</text>
<polygon fill="#fdb462" stroke="transparent" points="702,-10 702,-30 722,-30 722,-10 702,-10"/>
<text text-anchor="start" x="725.6732" y="-15.4" font-family="sans-serif" font-size="14.00" fill="#000000"> &#160;Providers</text>
<polygon fill="#fb8072" stroke="transparent" points="798,-10 798,-30 818,-30 818,-10 798,-10"/>
<text text-anchor="start" x="821.7258" y="-15.4" font-family="sans-serif" font-size="14.00" fill="#000000"> &#160;Exports</text>
<g id="clust1" class="cluster">
<title>cluster_AppModule</title>
<polygon fill="none" stroke="#000000" stroke-dasharray="1,5" points="8,-70 8,-268 1272,-268 1272,-70 8,-70"/>
</g>
<g id="clust2" class="cluster">
<title>cluster_AppModule_declarations</title>
<polygon fill="none" stroke="#000000" points="168,-78 168,-130 1264,-130 1264,-78 168,-78"/>
</g>
<g id="clust9" class="cluster">
<title>cluster_AppModule_imports</title>
<polygon fill="none" stroke="#000000" points="16,-78 16,-130 160,-130 160,-78 16,-78"/>
</g>
<g id="clust11" class="cluster">
<title>cluster_AppModule_bootstrap</title>
<polygon fill="none" stroke="#000000" points="553,-208 553,-260 677,-260 677,-208 553,-208"/>
</g>
<!-- AppComponent -->
<g id="node1" class="node">
<title>AppComponent</title>
<polygon fill="#ffffb3" stroke="#000000" points="1255.9399,-122 1150.0601,-122 1150.0601,-86 1255.9399,-86 1255.9399,-122"/>
<text text-anchor="middle" x="1203" y="-99.8" font-family="Times,serif" font-size="14.00" fill="#000000">AppComponent</text>
</g>
<!-- AppModule -->
<g id="node7" class="node">
<title>AppModule</title>
<polygon fill="#8dd3c7" stroke="#000000" points="656.6571,-187 653.6571,-191 632.6571,-191 629.6571,-187 573.3429,-187 573.3429,-151 656.6571,-151 656.6571,-187"/>
<text text-anchor="middle" x="615" y="-164.8" font-family="Times,serif" font-size="14.00" fill="#000000">AppModule</text>
</g>
<!-- AppComponent&#45;&gt;AppModule -->
<g id="edge1" class="edge">
<title>AppComponent&#45;&gt;AppModule</title>
<path fill="none" stroke="#000000" d="M1203,-122.2921C1203,-144.2057 1203,-178 1203,-178 1203,-178 666.8161,-178 666.8161,-178"/>
<polygon fill="#000000" stroke="#000000" points="666.8162,-174.5001 656.8161,-178 666.8161,-181.5001 666.8162,-174.5001"/>
</g>
<!-- ContentCreatorPageComponent -->
<g id="node2" class="node">
<title>ContentCreatorPageComponent</title>
<polygon fill="#ffffb3" stroke="#000000" points="1132.3543,-122 937.6457,-122 937.6457,-86 1132.3543,-86 1132.3543,-122"/>
<text text-anchor="middle" x="1035" y="-99.8" font-family="Times,serif" font-size="14.00" fill="#000000">ContentCreatorPageComponent</text>
</g>
<!-- ContentCreatorPageComponent&#45;&gt;AppModule -->
<g id="edge2" class="edge">
<title>ContentCreatorPageComponent&#45;&gt;AppModule</title>
<path fill="none" stroke="#000000" d="M1035,-122.1061C1035,-141.3391 1035,-169 1035,-169 1035,-169 666.8067,-169 666.8067,-169"/>
<polygon fill="#000000" stroke="#000000" points="666.8067,-165.5001 656.8067,-169 666.8067,-172.5001 666.8067,-165.5001"/>
</g>
<!-- ContentFinderPageComponent -->
<g id="node3" class="node">
<title>ContentFinderPageComponent</title>
<polygon fill="#ffffb3" stroke="#000000" points="919.9255,-122 730.0745,-122 730.0745,-86 919.9255,-86 919.9255,-122"/>
<text text-anchor="middle" x="825" y="-99.8" font-family="Times,serif" font-size="14.00" fill="#000000">ContentFinderPageComponent</text>
</g>
<!-- ContentFinderPageComponent&#45;&gt;AppModule -->
<g id="edge3" class="edge">
<title>ContentFinderPageComponent&#45;&gt;AppModule</title>
<path fill="none" stroke="#000000" d="M825,-122.027C825,-138.3976 825,-160 825,-160 825,-160 666.7403,-160 666.7403,-160"/>
<polygon fill="#000000" stroke="#000000" points="666.7404,-156.5001 656.7403,-160 666.7403,-163.5001 666.7404,-156.5001"/>
</g>
<!-- ModuleCreatorPageComponent -->
<g id="node4" class="node">
<title>ModuleCreatorPageComponent</title>
<polygon fill="#ffffb3" stroke="#000000" points="712.0716,-122 517.9284,-122 517.9284,-86 712.0716,-86 712.0716,-122"/>
<text text-anchor="middle" x="615" y="-99.8" font-family="Times,serif" font-size="14.00" fill="#000000">ModuleCreatorPageComponent</text>
</g>
<!-- ModuleCreatorPageComponent&#45;&gt;AppModule -->
<g id="edge4" class="edge">
<title>ModuleCreatorPageComponent&#45;&gt;AppModule</title>
<path fill="none" stroke="#000000" d="M615,-122.1061C615,-122.1061 615,-140.991 615,-140.991"/>
<polygon fill="#000000" stroke="#000000" points="611.5001,-140.9909 615,-150.991 618.5001,-140.991 611.5001,-140.9909"/>
</g>
<!-- ModuleIndexPageComponent -->
<g id="node5" class="node">
<title>ModuleIndexPageComponent</title>
<polygon fill="#ffffb3" stroke="#000000" points="499.9692,-122 316.0308,-122 316.0308,-86 499.9692,-86 499.9692,-122"/>
<text text-anchor="middle" x="408" y="-99.8" font-family="Times,serif" font-size="14.00" fill="#000000">ModuleIndexPageComponent</text>
</g>
<!-- ModuleIndexPageComponent&#45;&gt;AppModule -->
<g id="edge5" class="edge">
<title>ModuleIndexPageComponent&#45;&gt;AppModule</title>
<path fill="none" stroke="#000000" d="M408,-122.027C408,-138.3976 408,-160 408,-160 408,-160 563.1105,-160 563.1105,-160"/>
<polygon fill="#000000" stroke="#000000" points="563.1105,-163.5001 573.1105,-160 563.1104,-156.5001 563.1105,-163.5001"/>
</g>
<!-- NavbarComponent -->
<g id="node6" class="node">
<title>NavbarComponent</title>
<polygon fill="#ffffb3" stroke="#000000" points="298.0297,-122 175.9703,-122 175.9703,-86 298.0297,-86 298.0297,-122"/>
<text text-anchor="middle" x="237" y="-99.8" font-family="Times,serif" font-size="14.00" fill="#000000">NavbarComponent</text>
</g>
<!-- NavbarComponent&#45;&gt;AppModule -->
<g id="edge6" class="edge">
<title>NavbarComponent&#45;&gt;AppModule</title>
<path fill="none" stroke="#000000" d="M237,-122.1061C237,-141.3391 237,-169 237,-169 237,-169 563.1031,-169 563.1031,-169"/>
<polygon fill="#000000" stroke="#000000" points="563.1032,-172.5001 573.1031,-169 563.1031,-165.5001 563.1032,-172.5001"/>
</g>
<!-- AppComponent  -->
<g id="node9" class="node">
<title>AppComponent </title>
<polygon fill="#80b1d3" stroke="#000000" points="669.439,-252 560.561,-252 560.561,-216 669.439,-216 669.439,-252"/>
<text text-anchor="middle" x="615" y="-229.8" font-family="Times,serif" font-size="14.00" fill="#000000">AppComponent </text>
</g>
<!-- AppModule&#45;&gt;AppComponent  -->
<g id="edge8" class="edge">
<title>AppModule&#45;&gt;AppComponent </title>
<path fill="none" stroke="#000000" stroke-dasharray="1,5" d="M615,-187.1061C615,-187.1061 615,-205.991 615,-205.991"/>
<polygon fill="#000000" stroke="#000000" points="611.5001,-205.9909 615,-215.991 618.5001,-205.991 611.5001,-205.9909"/>
</g>
<!-- AppRoutingModule -->
<g id="node8" class="node">
<title>AppRoutingModule</title>
<polygon fill="#8dd3c7" stroke="#000000" points="152.2744,-122 149.2744,-126 128.2744,-126 125.2744,-122 23.7256,-122 23.7256,-86 152.2744,-86 152.2744,-122"/>
<text text-anchor="middle" x="88" y="-99.8" font-family="Times,serif" font-size="14.00" fill="#000000">AppRoutingModule</text>
</g>
<!-- AppRoutingModule&#45;&gt;AppModule -->
<g id="edge7" class="edge">
<title>AppRoutingModule&#45;&gt;AppModule</title>
<path fill="none" stroke="#000000" d="M88,-122.2921C88,-144.2057 88,-178 88,-178 88,-178 563.2067,-178 563.2067,-178"/>
<polygon fill="#000000" stroke="#000000" points="563.2067,-181.5001 573.2067,-178 563.2067,-174.5001 563.2067,-181.5001"/>
</g>
</g>
</svg>
